inDegrees=no
num_controls=7
num_derivatives=13
num_iterations=98
num_multipliers=7
num_parameters=0
num_slacks=7
num_states=26
objective=0.445709
objective_accelerations=0.057226
objective_balance=0.003401
objective_effort=0.022746
objective_height=0.356795
objective_ligament=0.005541
solver_duration=1331.359799
status=Solve_Succeeded
success=true
DataType=double
version=3
OpenSimVersion=4.5
endheader
time	/jointset/ground_pelvis/pelvis_tilt/value	/jointset/ground_pelvis/pelvis_tx/value	/jointset/ground_pelvis/pelvis_ty/value	/jointset/hip_l/hip_flexion_l/value	/jointset/hip_l/hip_adduction_l/value	/jointset/hip_l/hip_rotation_l/value	/jointset/back/lumbar_extension/value	/jointset/patellofemoral_l/patellar_flexion_l/value	/jointset/knee_l/knee_flexion_l/value	/jointset/knee_l/knee_adduction_l/value	/jointset/knee_l/knee_rotation_l/value	/jointset/ankle_l/ankle_angle_l/value	/jointset/subtalar_l/subtalar_angle_l/value	/jointset/ground_pelvis/pelvis_tilt/speed	/jointset/ground_pelvis/pelvis_tx/speed	/jointset/ground_pelvis/pelvis_ty/speed	/jointset/hip_l/hip_flexion_l/speed	/jointset/hip_l/hip_adduction_l/speed	/jointset/hip_l/hip_rotation_l/speed	/jointset/back/lumbar_extension/speed	/jointset/patellofemoral_l/patellar_flexion_l/speed	/jointset/knee_l/knee_flexion_l/speed	/jointset/knee_l/knee_adduction_l/speed	/jointset/knee_l/knee_rotation_l/speed	/jointset/ankle_l/ankle_angle_l/speed	/jointset/subtalar_l/subtalar_angle_l/speed	/forceset/tau_hip_flexion_l	/forceset/tau_hip_adduction_l	/forceset/tau_hip_rotation_l	/forceset/tau_knee_flexion_l	/forceset/tau_ankle_angle_l	/forceset/tau_subtalar_angle_l	/forceset/tau_lumbar_extension	lambda_cid13_p0	lambda_cid13_p1	lambda_cid13_p2	lambda_cid13_p3	lambda_cid13_p4	lambda_cid13_p5	lambda_cid14_p0	/jointset/ground_pelvis/pelvis_tilt/accel	/jointset/ground_pelvis/pelvis_tx/accel	/jointset/ground_pelvis/pelvis_ty/accel	/jointset/hip_l/hip_flexion_l/accel	/jointset/hip_l/hip_adduction_l/accel	/jointset/hip_l/hip_rotation_l/accel	/jointset/back/lumbar_extension/accel	/jointset/patellofemoral_l/patellar_flexion_l/accel	/jointset/knee_l/knee_flexion_l/accel	/jointset/knee_l/knee_adduction_l/accel	/jointset/knee_l/knee_rotation_l/accel	/jointset/ankle_l/ankle_angle_l/accel	/jointset/subtalar_l/subtalar_angle_l/accel	gamma_cid13_p0	gamma_cid13_p1	gamma_cid13_p2	gamma_cid13_p3	gamma_cid13_p4	gamma_cid13_p5	gamma_cid14_p0
1.5	-0.3619067600874158	-0.01905043653027631	0.7635068687491607	1.092463102383318	-0.4351108625638849	-0.2120044196620863	-0.2245544713519965	0.8038473234914238	0.8038473234914428	-0.1315246074022552	-0.1447930853013954	0.1351943943263871	-0.01551902950078351	0.6611607066552863	0.268540434976826	0.5272622896620929	-2.427828127220725	0.210931272186007	-0.7140712283521845	0.3172061240517277	-2.013643084708141	-2.013643084708169	-0.129377326702055	0.1376923370962428	-0.411685872158202	0.03075019543933653	-0.1733868282792386	0.03380875939876508	-0.007943117878069899	-0.2003422985645256	0.03401965489602996	0.04062167870934209	0.1674988133286699	-21.21677151532882	-16.86429478051767	5.707704487949165	-5.795567817379488	-520.1204898944794	-59.35320986220948	-24.97831607888817	0.6646693231646342	0.6630527181775684	-0.5212544226005402	-1.247047481432858	0.7039285668514491	-0.1721238441940554	1.453673947505741	-1.316416766414009	-1.316416766414023	0.1212349055557124	0.2308914971640422	-0.5387206633371906	0.4868836127137634	4.762624941790092e-07	5.134223043916414e-07	-2.744752646618313e-06	-8.812658700828854e-08	6.890798145240219e-07	1.668249935128053e-08	4.424351025236214e-07
1.51	-0.3552620326754132	-0.0163321456443223	0.7687523792933739	1.068124279427387	-0.4329677564912702	-0.2191529116498734	-0.2213109363027755	0.7836475004342995	0.7836475004343662	-0.1328148444370588	-0.1434061970536689	0.1310508944296746	-0.01518879675924808	0.6676872627322166	0.2750822781673343	0.5217283224791809	-2.439597405804846	0.217667332342204	-0.7155059478103828	0.3314679840169003	-2.026039497733348	-2.026039497733354	-0.1286805190177982	0.1396862031715484	-0.4169404849416638	0.0353014155506056	-0.1675301752332886	0.03279564708095237	-0.007578928544122133	-0.1973803962409291	0.03390490277445168	0.04009105416557878	0.1627306567997273	-21.04093515406106	-16.67840902663628	5.69380517258845	-5.64122382280159	-516.2228237248894	-59.70374493609335	-25.89029361149561	0.6320329410066936	0.6444710054824796	-0.5860917871107425	-1.090991255119348	0.6550387118664933	-0.1106420770084914	1.407506754702917	-1.159020633581722	-1.159020633578296	0.04252439098542971	0.1834954554244607	-0.5077426363502212	0.4399255523203582	3.9467748937522e-07	1.065646087635418e-06	-1.730066782580607e-06	1.036638230782251e-07	5.662150841311635e-07	1.404425955781992e-07	3.860826081239875e-07
1.52	-0.3485549628644323	-0.0135494921492642	0.773939225381563	1.043677939043971	-0.4307579710227208	-0.2263120500483176	-0.2179257697071668	0.7633321598343218	0.7633321598344359	-0.1340983892567955	-0.1419993978866465	0.1268570661950276	-0.01481291494820257	0.6736291864511271	0.281412956797644	0.5155293984572966	-2.449331612717671	0.2242671513729085	-0.7162005104836114	0.3455324333292695	-2.036746593278862	-2.036746593278846	-0.1280388836885502	0.1416745209552803	-0.4217515397451074	0.03988000934135045	-0.1616735221873342	0.0317825347631398	-0.007214739210178637	-0.1944184939173326	0.03379015065287271	0.03956042962181546	0.1579625002707891	-20.86834976481485	-16.49428796094082	5.682854033673641	-5.512794502303461	-512.3913762621579	-60.09678139932021	-26.8018559428314	0.5477428515606797	0.6208198061378539	-0.6542457903949818	-0.8400331471736872	0.6766803417529438	-0.0240924872000738	1.414191816945047	-0.9785532704755852	-0.9785532704755996	0.1102004345539503	0.2297818388493077	-0.4500090673335326	0.4923583486089199	3.720689958790642e-07	1.365019543973859e-06	-1.319083710051988e-06	1.935202116013088e-07	5.398398477069578e-07	2.337239961112993e-07	3.709605310579493e-07
1.53	-0.3417913528994203	-0.01070466770733566	0.7790608435056791	1.01914424167159	-0.4284830826662309	-0.2334745113813126	-0.2144012998824932	0.7429181185115257	0.7429181185115467	-0.1353761674733778	-0.1405728488516551	0.1226172679686689	-0.01439139331870441	0.6789857429823338	0.2875073206364137	0.5086884274904524	-2.457051274227255	0.2306842008374587	-0.7162094968301452	0.3593079355671975	-2.045763993372856	-2.04576399337286	-0.1274956029780211	0.1436083144441735	-0.4261296986267284	0.044429026097746	-0.1556699810758684	0.03090512078033876	-0.006871200434990853	-0.1916853256375236	0.03401710421891662	0.03857398272628167	0.1530383920317497	-20.60664329524509	-16.11521187855692	5.626433266688184	-5.317824672115102	-508.6541358279961	-60.10547869677241	-27.71303437417649	0.5135706699965287	0.5970860690486691	-0.7147612313247249	-0.6844165995408353	0.6203033159904959	0.02341979915730516	1.351190021493615	-0.8187646932553256	-0.8187646932585558	0.02973344763636306	0.1707693224398849	-0.4199148163368782	0.4368492906679009	4.121230456472681e-07	1.395739527975385e-06	-1.549534853501768e-06	1.750717022132492e-07	6.159846986244446e-07	2.946217824697174e-07	3.996457724088562e-07
1.54	-0.3349773856458779	-0.007800231347758983	0.7841109042238276	0.9945440508947754	-0.4261448066016583	-0.2406345182762656	-0.2107406829165848	0.7224228169249116	0.7224228169248379	-0.1366478445711901	-0.1391278436380657	0.1183360490499418	-0.01392424633133967	0.683700644157377	0.2933353403272698	0.5012179172637805	-2.462630293604444	0.2369446929893868	-0.715709622875185	0.3727618615762038	-2.052998646042614	-2.05299864604264	-0.1268186599341318	0.1453657566742895	-0.4300356782187689	0.04900508091466321	-0.1496664399643985	0.03002770679753787	-0.006527661659820813	-0.188952157357714	0.03424405778495968	0.03758753583074773	0.1481142837927147	-20.3466627617961	-15.73993211692712	5.575300290950844	-5.16004092563993	-504.9569809181091	-60.16478047770391	-28.62455014889012	0.4194117803279958	0.5675509765551338	-0.780153642360499	-0.4119047206948226	0.6453688792285178	0.07767957309873891	1.349876571160709	-0.6220037856285843	-0.6220037856285415	0.1369329012260122	0.1945115870938636	-0.3555732094173968	0.4977659607132514	4.260094928379519e-07	1.46096229777447e-06	-1.610171645156247e-06	1.796922414495435e-07	6.512031911047507e-07	3.48257982849325e-07	4.108901520014149e-07
1.55	-0.3281194754605724	-0.004838932986143956	0.7890832040485042	0.9698987306792936	-0.4237447466555239	-0.247787204101281	-0.2069472710159934	0.7018640866680196	0.7018640866679982	-0.1379120205156387	-0.1376662401575342	0.1140181209022018	-0.01341123506330357	0.6877725545703776	0.2988705019514405	0.4931453620301603	-2.466075480736384	0.2430317195670658	-0.714717351100905	0.3858541820071977	-2.058448636243575	-2.058448636243567	-0.1260222404830339	0.1469472029314576	-0.433473320524069	0.05359040538444187	-0.1437796802290681	0.02878429289274347	-0.006176083937578575	-0.1861947375408704	0.03407878382602412	0.03674134834927056	0.1432496565172041	-20.22694645976014	-15.40580161782201	5.536202277390675	-4.832377254576299	-501.4984369116519	-60.39494188731467	-29.53770442113282	0.3847609198498455	0.5384698938568948	-0.835182782785038	-0.2570707180491763	0.5850014315345413	0.1268972096180258	1.278959298848734	-0.4617606980345678	-0.4617606980293655	0.05034861083574078	0.1384846679519182	-0.3263128804936065	0.4378045305408298	4.097463109719293e-07	1.565938277296829e-06	-1.475152770611802e-06	2.108923367095487e-07	6.39267401037873e-07	3.935275732968253e-07	4.020396256550085e-07
1.56	-0.321224110121525	-0.001823888780585447	0.79397190305706	0.9452297095907708	-0.421284890066713	-0.2549265879625487	-0.203024926007136	0.6812598036969769	0.6812598036970082	-0.1391683618368192	-0.1361891175098461	0.1096681257035273	-0.01285259278248354	0.6911916749059304	0.3040845091159666	0.4844977540396456	-2.467370468212545	0.2489040215246236	-0.7130492301256092	0.3985484832293926	-2.062109188872725	-2.062109188872682	-0.1252517352805729	0.148469590105572	-0.4364490884056613	0.0581312834714473	-0.1378929204937355	0.02754087898794882	-0.005824506215336295	-0.1834373177240275	0.03391350986708776	0.03589516086779274	0.1383850292416962	-20.1094860788452	-15.07497496261912	5.501857062392056	-4.538144616489915	-498.087233711617	-60.67241341300216	-30.44764612122657	0.2888537648384383	0.503320084626224	-0.8951641937394057	0.01813521046113423	0.6024239552042676	0.2128494133019085	1.270272729400891	-0.2641162712664227	-0.2641162712664183	0.1317500514986148	0.1826997704831509	-0.2631983246758731	0.4888766841586052	3.81316112880838e-07	1.710055467113346e-06	-1.268383507929397e-06	2.605654189106482e-07	6.017495327257321e-07	4.286417189841724e-07	3.896116287271155e-07
1.57	-0.3142979186752184	0.001241637270704311	0.7987712985290008	0.9205587453714714	-0.418767373170463	-0.2620468997332114	-0.1989777881179562	0.6606282645059975	0.6606282645060625	-0.1404163605821636	-0.1346978210735192	0.1052908840814496	-0.01224860495991929	0.69393000322494	0.3089601820930905	0.4752925910556328	-2.466449498943417	0.2545552698366181	-0.7109050077272314	0.4107893988144542	-2.063881562264428	-2.063881562264426	-0.1243534857304729	0.1497747939624412	-0.4389142466074223	0.06265533459174712	-0.1318061441909407	0.02606686913893275	-0.005527141141381883	-0.1810800518528347	0.03428818263900095	0.03481354174311978	0.1333438503235354	-19.83692665092708	-14.66385005234375	5.448761484656605	-4.284510347789961	-494.825389706263	-60.80271523599736	-31.33939947011663	0.2488145325089808	0.4706880918024702	-0.9464062963507046	0.1849979587443084	0.539700937092967	0.2317522515505661	1.187546604255769	-0.0863074106492142	-0.08630741065546295	0.06834205561119021	0.1019807847735998	-0.2253584086802354	0.4322995926325799	3.37677144508411e-07	1.903099169797558e-06	-9.719262600745418e-07	3.333297347881153e-07	5.322540666070127e-07	4.51061558721328e-07	3.727117935723643e-07
1.58	-0.3073478455123072	0.004354119489274703	0.8034759995819774	0.8959081748795842	-0.4161946986575137	-0.2691424605602015	-0.1948109319466865	0.6399884996735965	0.6399884996736936	-0.1416554809022398	-0.1331939625803245	0.1008915541092033	-0.01159975057281865	0.6959680182270214	0.3134757425720937	0.4655588702468778	-2.463291722730058	0.2599355448644498	-0.7080990413910588	0.4224921396473957	-2.063754317157212	-2.063754317157252	-0.1234760502265518	0.1509820014787026	-0.4408667584393443	0.06710459637872386	-0.1257193678881426	0.02459285928991704	-0.005229776067439552	-0.1787227859816407	0.03466285541091386	0.03373192261844728	0.1283026714053778	-19.57256298250764	-14.25437459113586	5.399452895582715	-4.036272398767969	-491.6895335040652	-60.98612735177954	-32.20747631346164	0.148791101452789	0.4312975850020734	-1.00087575868788	0.465496599307304	0.5482292983716934	0.3451982008608872	1.162637778976878	0.115807428517366	0.115807428517367	0.1275872422628521	0.1631005023615965	-0.1606690507080481	0.4739188174939911	2.984342468060356e-07	2.042239768904689e-06	-7.322246783529232e-07	3.866283025313424e-07	4.74848717693874e-07	4.662839609689447e-07	3.553568060377306e-07
1.59	-0.3003810119819427	0.007509846528411909	0.8080807983388144	0.8713006478350067	-0.4135694980270697	-0.2762071969007986	-0.1905297886386481	0.6193597211731721	0.6193597211731586	-0.1428853773330165	-0.1316788533352421	0.09647531939384707	-0.01090662563837819	0.6972772592833952	0.317597969236697	0.4553217351681216	-2.457824773246617	0.2650558699559003	-0.7047484626402514	0.4336321800445785	-2.061670957920952	-2.061670957920964	-0.1224981859651592	0.152016465978045	-0.4422951277794292	0.07150548930482972	-0.1197500468993573	0.02307029389715536	-0.004956772747646844	-0.1762169627720006	0.03477813997670528	0.03255958268430444	0.1233229711138344	-19.4082348427272	-13.78807810152835	5.341192685405878	-3.642899779441908	-488.7444508130101	-61.09952795579076	-33.04638756672077	0.1037462254114474	0.3920167101887549	-1.046922391601049	0.6456037500149694	0.4864033838039791	0.3452408335222928	1.074035882747751	0.3040985875680658	0.3040985875721796	0.08398105104122869	0.06995347605975984	-0.1210913069828159	0.4206524740011588	2.651574450130154e-07	2.108226156014356e-06	-5.695486435264067e-07	4.13509069235245e-07	4.338513849883084e-07	4.717384123379022e-07	3.373841117018277e-07
